<svg width="800" height="600" viewBox="0 0 800 600" xmlns="http://www.w3.org/2000/svg">
  <defs>
    <radialGradient id="culturalGradient" cx="50%" cy="50%" r="50%">
      <stop offset="0%" style="stop-color:#7C2D12;stop-opacity:1" />
      <stop offset="50%" style="stop-color:#A16207;stop-opacity:0.8" />
      <stop offset="100%" style="stop-color:#451A03;stop-opacity:0.6" />
    </radialGradient>
    <filter id="culturalGlow">
      <feGaussianBlur stdDeviation="4" result="coloredBlur"/>
      <feMerge> 
        <feMergeNode in="coloredBlur"/>
        <feMergeNode in="SourceGraphic"/>
      </feMerge>
    </filter>
  </defs>
  
  <!-- Background -->
  <rect width="800" height="600" fill="url(#culturalGradient)"/>
  
  <!-- Cultural Patterns -->
  <g filter="url(#culturalGlow)">
    <!-- Central mandala-like pattern -->
    <circle cx="400" cy="300" r="100" stroke="#F59E0B" stroke-width="3" fill="none" opacity="0.8"/>
    <circle cx="400" cy="300" r="70" stroke="#FBBF24" stroke-width="2" fill="none" opacity="0.7"/>
    <circle cx="400" cy="300" r="40" stroke="#FCD34D" stroke-width="2" fill="none" opacity="0.6"/>
    
    <!-- Cultural symbols/patterns -->
    <g transform="translate(400,300)">
      <!-- Radiating patterns -->
      <line x1="0" y1="-100" x2="0" y2="-70" stroke="#F59E0B" stroke-width="4" opacity="0.8"/>
      <line x1="70.7" y1="-70.7" x2="49.5" y2="-49.5" stroke="#F59E0B" stroke-width="4" opacity="0.8"/>
      <line x1="100" y1="0" x2="70" y2="0" stroke="#F59E0B" stroke-width="4" opacity="0.8"/>
      <line x1="70.7" y1="70.7" x2="49.5" y2="49.5" stroke="#F59E0B" stroke-width="4" opacity="0.8"/>
      <line x1="0" y1="100" x2="0" y2="70" stroke="#F59E0B" stroke-width="4" opacity="0.8"/>
      <line x1="-70.7" y1="70.7" x2="-49.5" y2="49.5" stroke="#F59E0B" stroke-width="4" opacity="0.8"/>
      <line x1="-100" y1="0" x2="-70" y2="0" stroke="#F59E0B" stroke-width="4" opacity="0.8"/>
      <line x1="-70.7" y1="-70.7" x2="-49.5" y2="-49.5" stroke="#F59E0B" stroke-width="4" opacity="0.8"/>
    </g>
    
    <!-- Cultural nodes representing different traditions -->
    <circle cx="200" cy="150" r="25" fill="#D97706" opacity="0.9"/>
    <circle cx="600" cy="150" r="25" fill="#F59E0B" opacity="0.9"/>
    <circle cx="150" cy="400" r="25" fill="#FBBF24" opacity="0.9"/>
    <circle cx="650" cy="400" r="25" fill="#FCD34D" opacity="0.9"/>
    
    <!-- Interconnecting cultural flows -->
    <path d="M 200 150 Q 300 200 400 200" stroke="#F59E0B" stroke-width="3" fill="none" opacity="0.7"/>
    <path d="M 600 150 Q 500 200 400 200" stroke="#F59E0B" stroke-width="3" fill="none" opacity="0.7"/>
    <path d="M 150 400 Q 250 350 400 400" stroke="#F59E0B" stroke-width="3" fill="none" opacity="0.7"/>
    <path d="M 650 400 Q 550 350 400 400" stroke="#F59E0B" stroke-width="3" fill="none" opacity="0.7"/>
    
    <!-- Wisdom symbols -->
    <polygon points="200,130 210,150 190,150" fill="#FFFFFF" opacity="0.8"/>
    <polygon points="600,130 610,150 590,150" fill="#FFFFFF" opacity="0.8"/>
    <polygon points="130,400 150,390 150,410" fill="#FFFFFF" opacity="0.8"/>
    <polygon points="670,400 650,390 650,410" fill="#FFFFFF" opacity="0.8"/>
  </g>
  
  <!-- Abstract cultural patterns -->
  <g opacity="0.4">
    <path d="M 100 100 Q 400 50 700 100 Q 750 300 700 500 Q 400 550 100 500 Q 50 300 100 100" 
          stroke="#FFFFFF" stroke-width="2" fill="none"/>
    <circle cx="400" cy="300" r="150" stroke="#FFFFFF" stroke-width="1" fill="none"/>
    <circle cx="400" cy="300" r="200" stroke="#FFFFFF" stroke-width="1" fill="none"/>
  </g>
</svg>
