<svg width="800" height="600" viewBox="0 0 800 600" xmlns="http://www.w3.org/2000/svg">
  <defs>
    <radialGradient id="neuralGradient" cx="50%" cy="50%" r="50%">
      <stop offset="0%" style="stop-color:#4F46E5;stop-opacity:1" />
      <stop offset="50%" style="stop-color:#7C3AED;stop-opacity:0.8" />
      <stop offset="100%" style="stop-color:#1E1B4B;stop-opacity:0.6" />
    </radialGradient>
    <filter id="glow">
      <feGaussianBlur stdDeviation="3" result="coloredBlur"/>
      <feMerge> 
        <feMergeNode in="coloredBlur"/>
        <feMergeNode in="SourceGraphic"/>
      </feMerge>
    </filter>
  </defs>
  
  <!-- Background -->
  <rect width="800" height="600" fill="url(#neuralGradient)"/>
  
  <!-- Neural Network Pattern -->
  <g filter="url(#glow)">
    <!-- Nodes -->
    <circle cx="150" cy="150" r="8" fill="#60A5FA" opacity="0.9"/>
    <circle cx="300" cy="100" r="6" fill="#34D399" opacity="0.8"/>
    <circle cx="450" cy="180" r="10" fill="#F59E0B" opacity="0.9"/>
    <circle cx="600" cy="120" r="7" fill="#EF4444" opacity="0.8"/>
    <circle cx="200" cy="300" r="9" fill="#8B5CF6" opacity="0.9"/>
    <circle cx="400" cy="350" r="8" fill="#06B6D4" opacity="0.8"/>
    <circle cx="550" cy="280" r="6" fill="#10B981" opacity="0.9"/>
    <circle cx="100" cy="450" r="7" fill="#F97316" opacity="0.8"/>
    <circle cx="350" cy="500" r="9" fill="#EC4899" opacity="0.9"/>
    <circle cx="650" cy="450" r="8" fill="#6366F1" opacity="0.8"/>
    
    <!-- Connections -->
    <line x1="150" y1="150" x2="300" y2="100" stroke="#60A5FA" stroke-width="2" opacity="0.6"/>
    <line x1="300" y1="100" x2="450" y2="180" stroke="#34D399" stroke-width="2" opacity="0.6"/>
    <line x1="450" y1="180" x2="600" y2="120" stroke="#F59E0B" stroke-width="2" opacity="0.6"/>
    <line x1="150" y1="150" x2="200" y2="300" stroke="#60A5FA" stroke-width="2" opacity="0.6"/>
    <line x1="200" y1="300" x2="400" y2="350" stroke="#8B5CF6" stroke-width="2" opacity="0.6"/>
    <line x1="400" y1="350" x2="550" y2="280" stroke="#06B6D4" stroke-width="2" opacity="0.6"/>
    <line x1="550" y1="280" x2="600" y2="120" stroke="#10B981" stroke-width="2" opacity="0.6"/>
    <line x1="200" y1="300" x2="100" y2="450" stroke="#8B5CF6" stroke-width="2" opacity="0.6"/>
    <line x1="100" y1="450" x2="350" y2="500" stroke="#F97316" stroke-width="2" opacity="0.6"/>
    <line x1="350" y1="500" x2="650" y2="450" stroke="#EC4899" stroke-width="2" opacity="0.6"/>
    <line x1="400" y1="350" x2="650" y2="450" stroke="#06B6D4" stroke-width="2" opacity="0.6"/>
    <line x1="450" y1="180" x2="550" y2="280" stroke="#F59E0B" stroke-width="2" opacity="0.6"/>
  </g>
  
  <!-- Abstract brain-like patterns -->
  <g opacity="0.3">
    <path d="M 100 200 Q 200 150 300 200 Q 400 250 500 200 Q 600 150 700 200" 
          stroke="#FFFFFF" stroke-width="3" fill="none"/>
    <path d="M 100 400 Q 200 350 300 400 Q 400 450 500 400 Q 600 350 700 400" 
          stroke="#FFFFFF" stroke-width="3" fill="none"/>
  </g>
</svg>
