<svg width="800" height="600" viewBox="0 0 800 600" xmlns="http://www.w3.org/2000/svg">
  <defs>
    <radialGradient id="socialGradient" cx="50%" cy="50%" r="50%">
      <stop offset="0%" style="stop-color:#059669;stop-opacity:1" />
      <stop offset="50%" style="stop-color:#0D9488;stop-opacity:0.8" />
      <stop offset="100%" style="stop-color:#134E4A;stop-opacity:0.6" />
    </radialGradient>
    <filter id="socialGlow">
      <feGaussianBlur stdDeviation="4" result="coloredBlur"/>
      <feMerge> 
        <feMergeNode in="coloredBlur"/>
        <feMergeNode in="SourceGraphic"/>
      </feMerge>
    </filter>
  </defs>
  
  <!-- Background -->
  <rect width="800" height="600" fill="url(#socialGradient)"/>
  
  <!-- Social Network Pattern -->
  <g filter="url(#socialGlow)">
    <!-- Central hub -->
    <circle cx="400" cy="300" r="20" fill="#10B981" opacity="0.9"/>
    
    <!-- Connected nodes representing people -->
    <circle cx="250" cy="200" r="15" fill="#34D399" opacity="0.8"/>
    <circle cx="550" cy="200" r="15" fill="#6EE7B7" opacity="0.8"/>
    <circle cx="200" cy="350" r="12" fill="#A7F3D0" opacity="0.8"/>
    <circle cx="600" cy="350" r="12" fill="#D1FAE5" opacity="0.8"/>
    <circle cx="300" cy="450" r="14" fill="#34D399" opacity="0.8"/>
    <circle cx="500" cy="450" r="14" fill="#6EE7B7" opacity="0.8"/>
    <circle cx="150" cy="250" r="10" fill="#A7F3D0" opacity="0.7"/>
    <circle cx="650" cy="250" r="10" fill="#D1FAE5" opacity="0.7"/>
    
    <!-- Connections showing relationships -->
    <line x1="400" y1="300" x2="250" y2="200" stroke="#10B981" stroke-width="3" opacity="0.7"/>
    <line x1="400" y1="300" x2="550" y2="200" stroke="#10B981" stroke-width="3" opacity="0.7"/>
    <line x1="400" y1="300" x2="200" y2="350" stroke="#10B981" stroke-width="3" opacity="0.7"/>
    <line x1="400" y1="300" x2="600" y2="350" stroke="#10B981" stroke-width="3" opacity="0.7"/>
    <line x1="400" y1="300" x2="300" y2="450" stroke="#10B981" stroke-width="3" opacity="0.7"/>
    <line x1="400" y1="300" x2="500" y2="450" stroke="#10B981" stroke-width="3" opacity="0.7"/>
    
    <!-- Secondary connections -->
    <line x1="250" y1="200" x2="150" y2="250" stroke="#34D399" stroke-width="2" opacity="0.6"/>
    <line x1="550" y1="200" x2="650" y2="250" stroke="#6EE7B7" stroke-width="2" opacity="0.6"/>
    <line x1="250" y1="200" x2="200" y2="350" stroke="#34D399" stroke-width="2" opacity="0.6"/>
    <line x1="550" y1="200" x2="600" y2="350" stroke="#6EE7B7" stroke-width="2" opacity="0.6"/>
    <line x1="300" y1="450" x2="200" y2="350" stroke="#34D399" stroke-width="2" opacity="0.6"/>
    <line x1="500" y1="450" x2="600" y2="350" stroke="#6EE7B7" stroke-width="2" opacity="0.6"/>
  </g>
  
  <!-- Abstract community patterns -->
  <g opacity="0.4">
    <circle cx="400" cy="150" r="80" stroke="#FFFFFF" stroke-width="2" fill="none"/>
    <circle cx="400" cy="450" r="80" stroke="#FFFFFF" stroke-width="2" fill="none"/>
    <circle cx="200" cy="300" r="60" stroke="#FFFFFF" stroke-width="2" fill="none"/>
    <circle cx="600" cy="300" r="60" stroke="#FFFFFF" stroke-width="2" fill="none"/>
  </g>
</svg>
